<svg width="24" height="24" viewBox="0 0 24 24" fill="none" xmlns="http://www.w3.org/2000/svg">
<path d="M19 17H12C10.897 17 10 17.897 10 19C10 20.103 10.897 21 12 21H19C20.103 21 21 20.103 21 19C21 17.897 20.103 17 19 17ZM19 10H12C10.897 10 10 10.897 10 12C10 13.103 10.897 14 12 14H19C20.103 14 21 13.103 21 12C21 10.897 20.103 10 19 10ZM19 3H12C10.897 3 10 3.897 10 5C10 6.103 10.897 7 12 7H19C20.103 7 21 6.103 21 5C21 3.897 20.103 3 19 3Z" fill="black"/>
<path d="M5 21.5C6.38071 21.5 7.5 20.3807 7.5 19C7.5 17.6193 6.38071 16.5 5 16.5C3.61929 16.5 2.5 17.6193 2.5 19C2.5 20.3807 3.61929 21.5 5 21.5Z" fill="black"/>
<path d="M5 14.5C6.38071 14.5 7.5 13.3807 7.5 12C7.5 10.6193 6.38071 9.5 5 9.5C3.61929 9.5 2.5 10.6193 2.5 12C2.5 13.3807 3.61929 14.5 5 14.5Z" fill="black"/>
<path d="M5 7.5C6.38071 7.5 7.5 6.38071 7.5 5C7.5 3.61929 6.38071 2.5 5 2.5C3.61929 2.5 2.5 3.61929 2.5 5C2.5 6.38071 3.61929 7.5 5 7.5Z" fill="black"/>
</svg>
